# This file uses centimeters as units for non-parametric coordinates.

mtllib Gun_Muzzle.mtl
g default
v 0.000000 1.255247 0.000000
v 0.000000 -1.255247 0.000000
v 0.000000 1.255247 2.970222
v 0.000000 -1.255247 2.970222
v 1.255247 0.000000 -0.000000
v -1.255247 0.000000 0.000000
v 1.255247 0.000000 2.970222
v -1.255247 0.000000 2.970222
vt 0.000000 0.000000
vt 1.000000 0.000000
vt 0.000000 1.000000
vt 1.000000 1.000000
vt 0.000000 0.000000
vt 1.000000 0.000000
vt 1.000000 1.000000
vt 0.000000 1.000000
vn -1.000000 0.000000 0.000000
vn -1.000000 0.000000 0.000000
vn -1.000000 0.000000 0.000000
vn -1.000000 0.000000 0.000000
vn 0.000000 1.000000 0.000000
vn 0.000000 1.000000 0.000000
vn 0.000000 1.000000 0.000000
vn 0.000000 1.000000 0.000000
s off
g MuzzlePlanes Muzzle
usemtl initialShadingGroup
f 1/1/1 2/2/2 4/4/3 3/3/4
f 5/5/5 6/6/6 8/7/7 7/8/8
g default
v 0.034807 0.174987 -0.000000
v 0.068276 0.164834 -0.000000
v 0.099122 0.148347 -0.000000
v 0.126158 0.126158 -0.000000
v 0.148347 0.099122 -0.000000
v 0.164834 0.068277 -0.000000
v 0.174987 0.034807 -0.000000
v 0.178415 0.000000 -0.000000
v 0.174987 -0.034807 -0.000000
v 0.164834 -0.068277 -0.000000
v 0.148347 -0.099122 -0.000000
v 0.126158 -0.126158 -0.000000
v 0.099122 -0.148347 -0.000000
v 0.068276 -0.164834 -0.000000
v 0.034807 -0.174987 -0.000000
v -0.000000 -0.178416 -0.000000
v -0.034807 -0.174987 -0.000000
v -0.068277 -0.164834 -0.000000
v -0.099122 -0.148347 -0.000000
v -0.126158 -0.126158 -0.000000
v -0.148348 -0.099122 -0.000000
v -0.164835 -0.068277 -0.000000
v -0.174987 -0.034807 -0.000000
v -0.178416 0.000000 -0.000000
v -0.174987 0.034807 -0.000000
v -0.164835 0.068277 -0.000000
v -0.148348 0.099122 -0.000000
v -0.126158 0.126158 -0.000000
v -0.099122 0.148347 -0.000000
v -0.068277 0.164834 -0.000000
v -0.034807 0.174987 -0.000000
v -0.000000 0.178416 -0.000000
v 0.246961 1.241560 0.229682
v 0.484432 1.169524 0.229683
v 0.703287 1.052544 0.229683
v 0.895114 0.895115 0.229682
v 1.052544 0.703287 0.229682
v 1.169524 0.484433 0.229682
v 1.241560 0.246962 0.229682
v 1.265884 0.000000 0.229682
v 1.241561 -0.246961 0.229682
v 1.169524 -0.484433 0.229682
v 1.052544 -0.703287 0.229682
v 0.895116 -0.895115 0.229682
v 0.703288 -1.052544 0.229682
v 0.484433 -1.169525 0.229682
v 0.246962 -1.241561 0.229682
v 0.000001 -1.265885 0.229682
v -0.246961 -1.241561 0.229682
v -0.484432 -1.169525 0.229682
v -0.703287 -1.052545 0.229682
v -0.895115 -0.895116 0.229683
v -1.052544 -0.703288 0.229682
v -1.169524 -0.484434 0.229682
v -1.241560 -0.246962 0.229682
v -1.265884 -0.000001 0.229682
v -1.241561 0.246961 0.229682
v -1.169525 0.484433 0.229682
v -1.052545 0.703287 0.229682
v -0.895116 0.895115 0.229683
v -0.703288 1.052544 0.229682
v -0.484433 1.169525 0.229682
v -0.246962 1.241561 0.229682
v 0.000000 1.265885 0.229682
v 0.144508 0.726492 0.077091
v -0.000000 0.740726 0.077091
v -0.144509 0.726493 0.077091
v -0.283464 0.684342 0.077091
v -0.411525 0.615891 0.077091
v -0.523772 0.523772 0.077090
v -0.615892 0.411525 0.077091
v -0.684342 0.283463 0.077091
v -0.726493 0.144508 0.077091
v -0.740726 -0.000000 0.077091
v -0.726493 -0.144509 0.077091
v -0.684342 -0.283464 0.077091
v -0.615891 -0.411525 0.077091
v -0.523772 -0.523772 0.077090
v -0.411525 -0.615892 0.077091
v -0.283463 -0.684342 0.077091
v -0.144508 -0.726493 0.077091
v 0.000000 -0.740726 0.077091
v 0.144509 -0.726493 0.077091
v 0.283464 -0.684342 0.077091
v 0.411525 -0.615891 0.077091
v 0.523772 -0.523772 0.077091
v 0.615891 -0.411525 0.077091
v 0.684341 -0.283463 0.077091
v 0.726493 -0.144508 0.077091
v 0.740726 0.000000 0.077091
v 0.726493 0.144509 0.077091
v 0.684341 0.283463 0.077091
v 0.615891 0.411525 0.077091
v 0.523771 0.523772 0.077091
v 0.411525 0.615891 0.077091
v 0.283463 0.684341 0.077091
vt 0.438749 0.000000
vt 0.469711 0.000000
vt 0.469711 1.000000
vt 0.438749 1.000000
vt 0.407789 0.000000
vt 0.407789 1.000000
vt 0.376829 0.000000
vt 0.376829 1.000000
vt 0.345865 0.000000
vt 0.345865 1.000000
vt 0.314903 0.000000
vt 0.314903 1.000000
vt 0.283943 0.000000
vt 0.283943 1.000000
vt 0.252981 0.000000
vt 0.252981 1.000000
vt 0.222019 0.000000
vt 0.222019 1.000000
vt 0.191057 0.000000
vt 0.191057 1.000000
vt 0.160095 0.000000
vt 0.160095 1.000000
vt 0.129137 0.000000
vt 0.129137 1.000000
vt 0.098173 0.000000
vt 0.098173 1.000000
vt 0.067213 0.000000
vt 0.067213 1.000000
vt 0.036251 0.000000
vt 0.036251 1.000000
vt 0.005287 0.000000
vt 0.005287 1.000000
vt 0.965097 0.000000
vt 0.996059 0.000000
vt 0.996059 1.000000
vt 0.965097 1.000000
vt 0.934136 0.000000
vt 0.934136 1.000000
vt 0.903174 0.000000
vt 0.903174 1.000000
vt 0.872213 0.000000
vt 0.872213 1.000000
vt 0.841252 0.000000
vt 0.841252 1.000000
vt 0.810290 0.000000
vt 0.810290 1.000000
vt 0.779328 0.000000
vt 0.779328 1.000000
vt 0.748367 0.000000
vt 0.748367 1.000000
vt 0.717404 0.000000
vt 0.717404 1.000000
vt 0.686442 0.000000
vt 0.686442 1.000000
vt 0.655482 0.000000
vt 0.655482 1.000000
vt 0.624520 0.000000
vt 0.624520 1.000000
vt 0.593558 0.000000
vt 0.593558 1.000000
vt 0.562596 0.000000
vt 0.562596 1.000000
vt 0.531636 0.000000
vt 0.531636 1.000000
vt 0.500674 0.000000
vt 0.500674 1.000000
vt 0.469711 0.500000
vt 0.500674 0.500000
vt 0.531636 0.500000
vt 0.562596 0.500000
vt 0.593558 0.500000
vt 0.624520 0.500000
vt 0.655482 0.500000
vt 0.686442 0.500000
vt 0.717404 0.500000
vt 0.748367 0.500000
vt 0.779328 0.500000
vt 0.810290 0.500000
vt 0.841252 0.500000
vt 0.872213 0.500000
vt 0.903174 0.500000
vt 0.934136 0.500000
vt 0.965097 0.500000
vt 0.996059 0.500000
vt 0.005287 0.500000
vt 0.036251 0.500000
vt 0.067213 0.500000
vt 0.098173 0.500000
vt 0.129137 0.500000
vt 0.160095 0.500000
vt 0.191057 0.500000
vt 0.222019 0.500000
vt 0.252981 0.500000
vt 0.283943 0.500000
vt 0.314903 0.500000
vt 0.345865 0.500000
vt 0.376829 0.500000
vt 0.407789 0.500000
vt 0.438749 0.500000
vn 0.090753 0.219098 -0.971473
vn 0.046266 0.232593 -0.971473
vn 0.054436 0.273662 -0.960284
vn 0.106778 0.257785 -0.960284
vn 0.131753 0.197183 -0.971473
vn 0.155017 0.232000 -0.960284
vn 0.167690 0.167690 -0.971473
vn 0.197299 0.197300 -0.960284
vn 0.197182 0.131754 -0.971473
vn 0.231999 0.155018 -0.960284
vn 0.219097 0.090753 -0.971473
vn 0.257784 0.106778 -0.960284
vn 0.232593 0.046265 -0.971473
vn 0.273662 0.054434 -0.960284
vn 0.237149 0.000000 -0.971473
vn 0.279023 0.000000 -0.960284
vn 0.232593 -0.046265 -0.971473
vn 0.273662 -0.054434 -0.960284
vn 0.219097 -0.090753 -0.971473
vn 0.257784 -0.106777 -0.960284
vn 0.197182 -0.131753 -0.971473
vn 0.231999 -0.155017 -0.960284
vn 0.167690 -0.167690 -0.971473
vn 0.197299 -0.197300 -0.960284
vn 0.131754 -0.197182 -0.971473
vn 0.155017 -0.231999 -0.960284
vn 0.090753 -0.219098 -0.971473
vn 0.106778 -0.257784 -0.960284
vn 0.046266 -0.232593 -0.971473
vn 0.054435 -0.273662 -0.960284
vn 0.000000 -0.237149 -0.971473
vn 0.000000 -0.279023 -0.960284
vn -0.046265 -0.232593 -0.971473
vn -0.054434 -0.273662 -0.960284
vn -0.090753 -0.219098 -0.971473
vn -0.106778 -0.257784 -0.960284
vn -0.131754 -0.197183 -0.971473
vn -0.155018 -0.231999 -0.960284
vn -0.167690 -0.167690 -0.971473
vn -0.197300 -0.197300 -0.960284
vn -0.197182 -0.131754 -0.971473
vn -0.231999 -0.155018 -0.960284
vn -0.219098 -0.090753 -0.971473
vn -0.257784 -0.106778 -0.960284
vn -0.232593 -0.046266 -0.971473
vn -0.273662 -0.054435 -0.960284
vn -0.237150 -0.000000 -0.971473
vn -0.279023 -0.000000 -0.960284
vn -0.232593 0.046265 -0.971473
vn -0.273662 0.054435 -0.960284
vn -0.219098 0.090753 -0.971473
vn -0.257784 0.106777 -0.960284
vn -0.197182 0.131754 -0.971473
vn -0.231999 0.155018 -0.960284
vn -0.167690 0.167690 -0.971473
vn -0.197300 0.197300 -0.960284
vn -0.131754 0.197182 -0.971473
vn -0.155018 0.231999 -0.960284
vn -0.090753 0.219097 -0.971473
vn -0.106778 0.257784 -0.960284
vn -0.046265 0.232593 -0.971473
vn -0.054435 0.273662 -0.960284
vn 0.000001 0.237149 -0.971473
vn 0.000001 0.279023 -0.960284
vn 0.026499 0.133216 -0.990733
vn 0.000000 0.135826 -0.990733
vn -0.026499 0.133216 -0.990733
vn -0.051978 0.125487 -0.990733
vn -0.075461 0.112935 -0.990733
vn -0.096044 0.096044 -0.990733
vn -0.112935 0.075461 -0.990733
vn -0.125487 0.051978 -0.990733
vn -0.133216 0.026498 -0.990733
vn -0.135826 -0.000000 -0.990733
vn -0.133216 -0.026498 -0.990733
vn -0.125487 -0.051978 -0.990733
vn -0.112935 -0.075461 -0.990733
vn -0.096043 -0.096044 -0.990733
vn -0.075461 -0.112935 -0.990733
vn -0.051978 -0.125487 -0.990733
vn -0.026498 -0.133216 -0.990733
vn -0.000000 -0.135826 -0.990733
vn 0.026498 -0.133216 -0.990733
vn 0.051978 -0.125487 -0.990733
vn 0.075461 -0.112935 -0.990733
vn 0.096044 -0.096044 -0.990733
vn 0.112935 -0.075461 -0.990733
vn 0.125487 -0.051978 -0.990733
vn 0.133216 -0.026498 -0.990733
vn 0.135826 0.000000 -0.990733
vn 0.133216 0.026498 -0.990733
vn 0.125487 0.051978 -0.990733
vn 0.112935 0.075462 -0.990733
vn 0.096043 0.096044 -0.990733
vn 0.075462 0.112935 -0.990733
vn 0.051978 0.125487 -0.990733
s 1
g Muzzle MuzzleCone
usemtl initialShadingGroup
f 104/107/9 73/75/10 41/11/11 42/12/12
f 103/106/13 104/107/9 42/12/12 43/14/14
f 102/105/15 103/106/13 43/14/14 44/16/16
f 101/104/17 102/105/15 44/16/16 45/18/18
f 100/103/19 101/104/17 45/18/18 46/20/20
f 99/102/21 100/103/19 46/20/20 47/22/22
f 98/101/23 99/102/21 47/22/22 48/24/24
f 97/100/25 98/101/23 48/24/24 49/26/26
f 96/99/27 97/100/25 49/26/26 50/28/28
f 95/98/29 96/99/27 50/28/28 51/30/30
f 94/97/31 95/98/29 51/30/30 52/32/32
f 93/96/33 94/97/31 52/32/32 53/34/34
f 92/95/35 93/96/33 53/34/34 54/36/36
f 91/94/37 92/95/35 54/36/36 55/38/38
f 90/93/39 91/94/37 55/38/38 56/40/40
f 89/91/41 90/92/39 56/43/40 57/44/42
f 88/90/43 89/91/41 57/44/42 58/46/44
f 87/89/45 88/90/43 58/46/44 59/48/46
f 86/88/47 87/89/45 59/48/46 60/50/48
f 85/87/49 86/88/47 60/50/48 61/52/50
f 84/86/51 85/87/49 61/52/50 62/54/52
f 83/85/53 84/86/51 62/54/52 63/56/54
f 82/84/55 83/85/53 63/56/54 64/58/56
f 81/83/57 82/84/55 64/58/56 65/60/58
f 80/82/59 81/83/57 65/60/58 66/62/60
f 79/81/61 80/82/59 66/62/60 67/64/62
f 78/80/63 79/81/61 67/64/62 68/66/64
f 77/79/65 78/80/63 68/66/64 69/68/66
f 76/78/67 77/79/65 69/68/66 70/70/68
f 75/77/69 76/78/67 70/70/68 71/72/70
f 74/76/71 75/77/69 71/72/70 72/74/72
f 73/75/10 74/76/71 72/74/72 41/11/11
f 9/10/73 40/73/74 74/76/71 73/75/10
f 40/73/74 39/71/75 75/77/69 74/76/71
f 39/71/75 38/69/76 76/78/67 75/77/69
f 38/69/76 37/67/77 77/79/65 76/78/67
f 37/67/77 36/65/78 78/80/63 77/79/65
f 36/65/78 35/63/79 79/81/61 78/80/63
f 35/63/79 34/61/80 80/82/59 79/81/61
f 34/61/80 33/59/81 81/83/57 80/82/59
f 33/59/81 32/57/82 82/84/55 81/83/57
f 32/57/82 31/55/83 83/85/53 82/84/55
f 31/55/83 30/53/84 84/86/51 83/85/53
f 30/53/84 29/51/85 85/87/49 84/86/51
f 29/51/85 28/49/86 86/88/47 85/87/49
f 28/49/86 27/47/87 87/89/45 86/88/47
f 27/47/87 26/45/88 88/90/43 87/89/45
f 26/45/88 25/41/89 89/91/41 88/90/43
f 25/41/89 24/42/90 90/92/39 89/91/41
f 24/39/90 23/37/91 91/94/37 90/93/39
f 23/37/91 22/35/92 92/95/35 91/94/37
f 22/35/92 21/33/93 93/96/33 92/95/35
f 21/33/93 20/31/94 94/97/31 93/96/33
f 20/31/94 19/29/95 95/98/29 94/97/31
f 19/29/95 18/27/96 96/99/27 95/98/29
f 18/27/96 17/25/97 97/100/25 96/99/27
f 17/25/97 16/23/98 98/101/23 97/100/25
f 16/23/98 15/21/99 99/102/21 98/101/23
f 15/21/99 14/19/100 100/103/19 99/102/21
f 14/19/100 13/17/101 101/104/17 100/103/19
f 13/17/101 12/15/102 102/105/15 101/104/17
f 12/15/102 11/13/103 103/106/13 102/105/15
f 11/13/103 10/9/104 104/107/9 103/106/13
f 10/9/104 9/10/73 73/75/10 104/107/9
